HIERARCHY
ROOT root
{
	OFFSET 0.000000 0.000000 0.000000
	CHANNELS 6 Xposition Yposition Zposition Zrotation Yrotation Xrotation
	JOINT lhip
	{
		OFFSET 0.058581 -0.082280 -0.017664
		CHANNELS 3 Zrotation Yrotation Xrotation
		JOINT lknee
		{
			OFFSET 0.043451 -0.386469 0.008037
			CHANNELS 3 Zrotation Yrotation Xrotation
			JOINT lankle
			{
				OFFSET -0.014790 -0.426874 -0.037428
				CHANNELS 3 Zrotation Yrotation Xrotation
				JOINT ltoe
				{
					OFFSET 0.041054 -0.060286 0.122042
					CHANNELS 3 Zrotation Yrotation Xrotation
					End Site
					{
						OFFSET 0.000000 0.000000 0.000000
					}
				}
			}
		}
	}
	JOINT rhip
	{
		OFFSET -0.060310 -0.090513 -0.013543
		CHANNELS 3 Zrotation Yrotation Xrotation
		JOINT rknee
		{
			OFFSET -0.043257 -0.383688 -0.004843
			CHANNELS 3 Zrotation Yrotation Xrotation
			JOINT rankle
			{
				OFFSET 0.019056 -0.420046 -0.034562
				CHANNELS 3 Zrotation Yrotation Xrotation
				JOINT rtoe
				{
					OFFSET -0.034840 -0.062106 0.130323
					CHANNELS 3 Zrotation Yrotation Xrotation
					End Site
					{
						OFFSET 0.000000 0.000000 0.000000
					}
				}
			}
		}
	}
	JOINT lowerback
	{
		OFFSET 0.004439 0.124404 -0.038385
		CHANNELS 3 Zrotation Yrotation Xrotation
		JOINT upperback
		{
			OFFSET 0.004488 0.137956 0.026820
			CHANNELS 3 Zrotation Yrotation Xrotation
			JOINT chest
			{
				OFFSET -0.002265 0.056032 0.002855
				CHANNELS 3 Zrotation Yrotation Xrotation
				JOINT lowerneck
				{
					OFFSET -0.013390 0.211636 -0.033468
					CHANNELS 3 Zrotation Yrotation Xrotation
					JOINT upperneck
					{
						OFFSET 0.010113 0.088937 0.050410
						CHANNELS 3 Zrotation Yrotation Xrotation
						End Site
						{
							OFFSET 0.000000 0.000000 0.000000
						}
					}
				}
				JOINT lclavicle
				{
					OFFSET 0.071702 0.114000 -0.018898
					CHANNELS 3 Zrotation Yrotation Xrotation
					JOINT lshoulder
					{
						OFFSET 0.122921 0.045205 -0.019046
						CHANNELS 3 Zrotation Yrotation Xrotation
						JOINT lelbow
						{
							OFFSET 0.255332 -0.015649 -0.022946
							CHANNELS 3 Zrotation Yrotation Xrotation
							JOINT lwrist
							{
								OFFSET 0.265709 0.012698 -0.007375
								CHANNELS 3 Zrotation Yrotation Xrotation
								End Site
								{
									OFFSET 0.000000 0.000000 0.000000
								}
							}
						}
					}
				}
				JOINT rclavicle
				{
					OFFSET -0.082954 0.112472 -0.023707
					CHANNELS 3 Zrotation Yrotation Xrotation
					JOINT rshoulder
					{
						OFFSET -0.113228 0.046853 -0.008472
						CHANNELS 3 Zrotation Yrotation Xrotation
						JOINT relbow
						{
							OFFSET -0.260127 -0.014369 -0.031269
							CHANNELS 3 Zrotation Yrotation Xrotation
							JOINT rwrist
							{
								OFFSET -0.269108 0.006794 -0.006027
								CHANNELS 3 Zrotation Yrotation Xrotation
								End Site
								{
									OFFSET 0.000000 0.000000 0.000000
								}
							}
						}
					}
				}
			}
		}
	}
}
MOTION
Frames: 17
Frame Time: 0.033333
-1.726243 0.250622 0.998220 81.034803 -2.619473 91.077714 -1.689251 -5.865905 -23.472403 -3.385961 1.406611 1.722094 -0.068456 7.826831 -3.933442 0.000000 -0.000000 0.000000 -2.362514 -3.567707 7.099128 -0.298828 4.149590 21.399523 2.831247 -7.715542 -20.433608 0.000000 -0.000000 0.000000 -1.649903 9.830750 16.256359 -0.839583 2.794750 -1.133722 0.120315 1.703053 3.445934 -3.871817 9.260614 -10.403152 -6.138431 -0.599389 7.139757 -27.077387 6.108771 1.527797 -53.013781 -1.783588 10.450671 8.746997 -28.877147 6.699745 -7.334960 -3.118183 -7.411904 31.394181 3.895983 3.632964 51.322232 12.208428 7.949412 -13.631876 3.028589 -20.130434 7.333824 -0.288066 -10.117848 
-1.699496 0.253530 0.996315 80.714276 -2.608812 91.785418 -2.375037 -6.479635 -22.860950 -3.253794 0.637635 2.244672 0.823496 7.196695 -1.933261 0.000000 -0.000000 0.000000 -2.854207 -3.172966 7.172909 -0.332885 4.635143 22.717969 3.618805 -7.553668 -18.354404 0.000000 -0.000000 0.000000 -2.213937 10.077867 15.216127 -0.878050 2.974403 -1.572681 -0.056529 1.759277 3.212321 -3.674238 9.074415 -9.749522 -5.848201 -0.287082 6.994648 -26.998534 6.653268 1.546698 -52.811312 -1.473839 10.485811 8.544795 -28.064805 6.937790 -7.989968 -3.129454 -7.617656 31.559229 3.278917 3.509224 51.332258 12.007705 8.203408 -13.705584 3.432575 -20.537251 7.774070 -0.311837 -10.499504 
-1.672048 0.257367 0.997037 81.272142 -3.051521 92.118044 -3.453045 -7.165223 -22.356274 -3.425762 -0.439291 3.057763 1.212383 7.301648 0.712817 0.000000 -0.000000 0.000000 -3.626306 -2.964831 7.224870 -0.693712 4.225037 24.737864 4.379475 -7.178253 -15.373242 0.000000 -0.000000 0.000000 -2.535225 9.848843 14.743964 -1.118774 2.535341 -1.677626 -0.517059 1.970452 2.876733 -3.678524 8.724017 -9.072080 -5.585806 0.034135 6.757293 -26.879330 6.506279 1.643719 -52.464922 -1.320869 10.581817 8.432012 -27.268446 6.858678 -8.563867 -2.988136 -7.306067 31.539045 3.220791 3.692460 51.651679 11.974095 8.252966 -13.882105 3.327646 -21.100244 8.062198 -0.251875 -10.935593 
-1.642896 0.261728 0.999435 81.711133 -3.466188 92.011011 -4.056779 -7.788787 -21.517870 -4.249768 -0.676332 4.839130 1.797942 7.284341 -0.077694 0.000000 -0.000000 0.000000 -4.399985 -2.833717 6.611677 -0.888612 4.278250 28.648164 5.404953 -7.208775 -11.572529 0.000000 -0.000000 0.000000 -2.987033 10.205664 14.129850 -1.063970 2.800429 -1.416076 -0.667754 1.897095 2.889825 -3.520429 8.111222 -8.789869 -5.388975 0.151480 7.002811 -26.731848 5.902002 1.610042 -52.558721 -1.846076 10.801966 8.576033 -26.500327 7.183531 -9.068233 -2.922376 -6.737110 31.370858 3.007143 3.534747 51.627873 11.572177 8.291379 -14.036944 3.073810 -21.931268 8.114045 -0.225821 -11.424365 
-1.612917 0.266346 1.003230 82.148132 -3.844740 91.547948 -5.009899 -8.322397 -19.831036 -5.053890 -2.117220 6.309709 2.782078 7.761930 -1.908760 0.000000 -0.000000 0.000000 -5.194474 -2.447691 5.218920 -0.843353 4.217920 34.035914 5.969948 -7.143193 -5.770506 0.000000 -0.000000 0.000000 -3.267767 10.124226 13.883915 -1.088053 3.108674 -1.341057 -0.890734 2.031338 2.971155 -3.199336 7.308209 -8.318277 -5.138657 0.287187 7.410853 -26.483091 5.734705 1.218083 -52.590269 -2.320660 10.997686 8.638632 -26.776575 7.580401 -9.276994 -2.385566 -6.191642 31.327712 2.765713 3.327370 51.382001 11.219590 8.291674 -14.249515 3.132601 -23.031179 8.248432 -0.320256 -11.670794 
-1.583457 0.271120 1.006993 82.582059 -3.936505 90.873234 -6.326412 -8.454747 -16.913664 -5.189685 -3.156169 6.059885 4.428714 8.175867 -3.280226 0.000000 -0.000000 0.000000 -5.460706 -1.555958 2.242366 -0.447784 4.415117 41.627983 6.392092 -7.283754 1.934366 0.000000 -0.000000 0.000000 -3.545057 9.398362 13.632629 -0.844347 3.786449 -1.308147 -1.029624 2.134993 3.077964 -2.808696 6.597206 -7.396948 -5.019158 0.892500 7.971052 -26.302813 5.908410 1.129725 -52.570341 -2.870317 11.236829 8.666562 -28.091812 7.584169 -9.804558 -2.225394 -6.252225 31.065700 2.358471 2.917113 51.166914 11.141681 8.547956 -14.630400 3.255685 -24.329443 8.825555 -0.140149 -11.850022 
-1.555323 0.274783 1.009420 83.472676 -3.871635 90.164933 -7.800289 -8.035642 -13.688667 -4.949727 -4.916233 5.111157 6.255691 8.914695 -3.910042 0.000000 -0.000000 0.000000 -5.102299 -0.463621 -1.479269 0.114233 4.565690 49.827555 5.796002 -7.769297 7.905722 0.000000 -0.000000 0.000000 -3.952445 8.165529 13.664284 -0.435829 4.170294 -1.732315 -1.041763 1.784665 3.217977 -2.063866 6.167981 -6.443243 -5.108496 1.503691 8.736459 -25.764808 6.190210 1.531412 -52.732440 -3.300126 11.382504 8.735600 -30.024546 7.425894 -10.230358 -2.714011 -7.341463 30.588437 2.175457 2.371286 51.010465 11.373734 9.015150 -14.866932 3.556207 -25.035512 9.308844 -0.086238 -12.257687 
-1.527578 0.277892 1.011266 84.848034 -4.015706 88.892836 -9.094621 -7.699647 -10.157706 -5.184247 -6.891864 4.920006 7.280337 9.649031 -4.975677 0.000000 -0.000000 0.000000 -5.026868 0.486262 -4.509372 0.820829 3.747570 56.973045 4.918700 -9.503110 8.656080 0.000000 -0.000000 0.000000 -4.390720 6.785214 14.107018 -0.163807 4.026861 -1.953626 -1.237674 1.230895 3.431728 -0.970265 6.277864 -5.289633 -5.228295 1.796159 9.365048 -25.275860 6.046276 2.102797 -52.067275 -3.875740 11.398374 8.300096 -32.203408 7.265667 -10.197055 -3.226061 -8.698492 30.502360 2.273640 1.710672 50.645501 11.270173 9.583633 -15.158742 4.715940 -24.991722 9.658967 -0.091607 -12.373850 
-1.501297 0.280442 1.013801 86.797877 -3.877135 87.534954 -9.896463 -7.021172 -6.879685 -5.543846 -9.163481 5.203694 7.378599 10.049842 -6.224492 0.000000 -0.000000 0.000000 -4.756132 0.907221 -7.271217 0.689111 2.007480 62.209660 4.837238 -10.269412 4.952970 0.000000 -0.000000 0.000000 -4.412380 5.238054 14.724462 0.115266 3.512481 -1.998709 -1.457323 0.684720 3.485714 -0.038733 6.671236 -3.999028 -5.258203 1.650750 9.986237 -24.956812 5.152264 2.289257 -51.233532 -4.475290 11.541843 7.790213 -33.665068 7.211748 -9.993190 -3.393317 -9.107707 30.433876 2.605585 1.237585 50.186526 11.124032 9.474265 -15.384000 5.851943 -24.936252 9.879637 -0.085023 -12.631864 
-1.475907 0.282368 1.016668 88.881046 -3.416554 86.331306 -10.299793 -5.893776 -3.805334 -5.567509 -11.567226 5.491653 7.391294 9.869418 -7.183071 0.000000 -0.000000 0.000000 -4.292573 1.253837 -9.973806 0.172711 0.319074 64.937962 4.640709 -10.554415 1.399629 0.000000 -0.000000 0.000000 -4.030834 3.799728 15.103362 0.357342 3.087905 -1.957872 -1.644237 0.083232 3.434433 0.690697 6.946762 -2.333896 -5.134186 1.494664 10.589161 -24.529976 3.718365 2.534681 -50.662470 -5.573527 11.605638 7.616471 -34.187020 7.270151 -10.160841 -3.054106 -8.405287 30.053871 2.985555 0.946402 50.076188 10.662207 9.068603 -15.426654 6.496546 -24.964123 10.376910 0.235553 -13.056981 
-1.452236 0.283571 1.018731 90.856828 -2.871326 85.385320 -10.360428 -5.143906 -1.071131 -5.552443 -13.807085 5.543526 7.543102 10.031459 -7.825388 0.000000 -0.000000 0.000000 -3.985231 1.769596 -13.204993 0.217829 -1.002052 66.189507 4.577660 -11.252773 -1.796899 0.000000 -0.000000 0.000000 -3.764360 2.388905 15.347310 0.651392 2.791215 -2.087473 -1.669259 -0.609097 3.554039 1.293801 7.504030 -1.000637 -5.136234 1.439069 11.556195 -24.051806 2.652479 2.438069 -50.335734 -7.103426 11.712224 7.680871 -34.450617 7.251130 -9.918380 -2.644338 -7.345297 29.762676 2.904528 0.392905 50.122579 10.360816 8.977496 -15.630590 7.216616 -24.932392 10.750368 0.398887 -13.135935 
-1.434691 0.284135 1.020126 92.098053 -2.509971 84.713097 -10.285362 -4.425082 1.189741 -5.395213 -15.162637 5.006202 7.628741 9.933326 -8.155799 0.000000 -0.000000 0.000000 -3.984215 2.086481 -15.488527 -0.017712 -1.806991 65.806642 4.683203 -11.470167 -4.627153 0.000000 -0.000000 0.000000 -3.628353 1.353681 15.658205 0.859894 2.396727 -2.236044 -1.688115 -0.970370 3.469672 1.744912 7.795977 0.008319 -5.083582 1.268283 12.095681 -23.683009 2.206626 2.265410 -50.066031 -8.054003 11.725696 7.843108 -34.981658 7.156040 -9.652337 -2.210124 -6.731145 29.728464 2.900741 0.235697 50.167322 10.173936 8.940896 -15.913082 7.807461 -24.855702 11.104744 0.411763 -12.976698 
-1.412240 0.284376 1.021416 93.716118 -1.831782 83.723590 -9.861505 -3.334420 4.240961 -5.070118 -17.146517 4.541514 7.640599 9.580257 -8.645883 0.000000 -0.000000 0.000000 -4.011091 2.542837 -18.141759 -0.106523 -2.827246 63.576126 5.172035 -11.243927 -7.111891 0.000000 -0.000000 0.000000 -3.387296 0.029012 16.495747 1.115761 2.079778 -2.522544 -1.485849 -1.583128 3.351825 2.111343 8.297864 1.113396 -5.000882 1.196377 12.733480 -23.226637 1.475514 2.425251 -49.800980 -9.483155 11.554999 8.278702 -35.794582 6.377643 -8.965655 -2.099039 -6.306479 29.665704 2.800685 -0.155841 50.334328 9.751680 8.901318 -16.342412 9.082489 -24.861253 11.158547 0.775083 -12.878988 
-1.391597 0.283839 1.021882 94.843315 -1.226014 83.114798 -9.237132 -2.378333 6.673284 -4.938850 -18.878066 4.194827 7.636502 9.347389 -9.264052 0.000000 -0.000000 0.000000 -4.214956 2.909107 -21.141626 0.193551 -3.241708 60.119848 5.880572 -10.441687 -8.652619 0.000000 -0.000000 0.000000 -3.279020 -1.065669 16.919314 1.410392 1.731733 -2.369615 -1.211373 -2.074040 3.281463 2.294223 8.979084 1.801085 -4.907863 1.153735 13.078422 -22.823693 0.600101 2.331558 -49.474361 -10.996306 11.430211 8.779858 -36.320816 5.082135 -8.217600 -2.171944 -6.447586 29.710101 2.895934 -0.189131 50.520320 9.856409 9.039783 -16.893515 10.524000 -24.939727 10.913979 1.015452 -13.321130 
-1.371774 0.283030 1.021926 95.793970 -0.692090 82.721346 -8.631110 -1.664071 8.512350 -4.876679 -20.331887 4.423183 7.729496 9.087532 -9.887275 0.000000 -0.000000 0.000000 -4.515145 2.902514 -23.837097 0.130496 -3.544231 55.454343 6.503228 -9.698349 -9.557326 0.000000 -0.000000 0.000000 -3.176698 -1.851907 17.602681 1.634911 1.415081 -2.539596 -0.868849 -2.562883 3.102862 2.406687 9.353372 2.167348 -4.689202 1.001399 13.445638 -22.262411 -0.221314 2.372624 -49.309195 -12.510197 11.320811 9.121668 -36.803468 3.851225 -7.181979 -2.522027 -6.898581 29.767134 3.037551 -0.272711 50.753702 9.976133 9.193887 -17.314949 11.739851 -25.018095 10.478038 1.281148 -13.531427 
-1.347041 0.281724 1.021109 95.971777 -0.046285 82.184542 -7.961266 -1.059253 10.673113 -4.674845 -21.147423 4.935213 7.821262 8.988878 -11.104257 0.000000 -0.000000 0.000000 -4.514900 3.048866 -26.245106 -0.121655 -3.761027 47.937644 7.102092 -9.116983 -9.460245 0.000000 -0.000000 0.000000 -2.930140 -2.256793 18.402652 1.825321 1.455437 -2.490889 -0.347135 -2.991622 2.984095 2.320100 9.645976 2.550438 -4.339169 1.051592 13.773477 -21.807956 -1.572145 2.541587 -49.127950 -14.362402 11.139477 9.707153 -37.187074 2.469417 -6.269376 -2.765187 -7.058651 29.665417 3.195103 -0.445932 51.089856 10.217674 9.382694 -17.899025 13.419515 -25.101132 9.893366 1.438438 -13.849045 
-1.326618 0.280596 1.019563 96.116904 0.225315 82.317754 -7.418881 -0.350400 11.907204 -4.646423 -21.965460 5.087600 7.878233 8.706109 -11.759865 0.000000 -0.000000 0.000000 -4.753707 2.432362 -27.690342 -0.236989 -4.557070 40.527319 7.756969 -8.291764 -8.025030 0.000000 -0.000000 0.000000 -2.643980 -2.828111 18.623335 1.737632 1.072216 -2.690977 -0.162669 -3.110620 2.762982 2.228501 9.870565 3.141515 -3.941141 1.188114 13.931915 -21.418466 -2.119364 2.528506 -48.859136 -15.319313 11.025925 9.762490 -37.521073 2.207708 -5.804954 -2.864858 -6.948345 29.910492 3.514326 -0.108930 51.361934 10.719738 9.451889 -18.471431 14.400213 -25.193097 9.192168 1.638733 -13.810078 
